<?xml version="1.0" encoding="UTF-8" standalone="no" ?>
<!DOCTYPE svg PUBLIC "-//W3C//DTD SVG 1.1//EN" "http://www.w3.org/Graphics/SVG/1.1/DTD/svg11.dtd">
<svg xmlns="http://www.w3.org/2000/svg" xmlns:xlink="http://www.w3.org/1999/xlink" version="1.1" width="1080" height="1080" viewBox="0 0 1080 1080" xml:space="preserve">
<desc>Created with Fabric.js 5.2.4</desc>
<defs>
</defs>
<g transform="matrix(1 0 0 1 540 540)" id="1cfe96cc-3f66-4106-85ad-1329b985536a"  >
<rect style="stroke: none; stroke-width: 1; stroke-dasharray: none; stroke-linecap: butt; stroke-dashoffset: 0; stroke-linejoin: miter; stroke-miterlimit: 4; fill: rgb(255,255,255); fill-rule: nonzero; opacity: 1; visibility: hidden;" vector-effect="non-scaling-stroke"  x="-540" y="-540" rx="0" ry="0" width="1080" height="1080" />
</g>
<g transform="matrix(1 0 0 1 540 540)" id="d7269841-acd7-4e1d-bc11-16f89602c69c"  >
</g>
<g transform="matrix(1 0 0 1 540 540)" id="b8965b86-cd51-45ab-a860-c7df6d568aa0"  >
<path style="stroke: rgb(0,0,0); stroke-width: 0; stroke-dasharray: none; stroke-linecap: butt; stroke-dashoffset: 0; stroke-linejoin: miter; stroke-miterlimit: 4; fill: rgb(255,255,255); fill-rule: nonzero; opacity: 1;" vector-effect="non-scaling-stroke"  transform=" translate(2.27, -28.12)" d="M 0 0 C 3.42003841 1.4894658 5.5247086 4.04027369 7.91162109 6.80834961 C 8.95914504 7.99252145 10.00733866 9.17610118 11.05615234 10.35913086 C 11.5867627 10.96321777 12.11737305 11.56730469 12.6640625 12.18969727 C 14.25075794 13.95592851 15.88373129 15.65860668 17.54833984 17.35131836 C 18.06122559 17.88072021 18.57411133 18.41012207 19.10253906 18.95556641 C 20.5285407 20.42320822 21.96398744 21.88165533 23.39990234 23.33959961 C 25.28662109 25.99584961 25.28662109 25.99584961 25.07958984 28.83959961 C 24.81791016 29.55116211 24.55623047 30.26272461 24.28662109 30.99584961 C 21.64662109 30.99584961 19.00662109 30.99584961 16.28662109 30.99584961 C 16.33302734 31.99745117 16.37943359 32.99905273 16.42724609 34.03100586 C 16.87631937 47.68146214 16.87631937 47.68146214 12.28662109 52.99584961 C 7.16937842 56.29604405 2.96950588 56.36903088 -2.90087891 56.18334961 C -3.7071875 56.16981445 -4.51349609 56.1562793 -5.34423828 56.14233398 C -6.83485407 56.11631326 -8.32538495 56.0840966 -9.81567383 56.04345703 C -11.4478058 56.002512 -13.08073342 55.99584961 -14.71337891 55.99584961 C -16.90087891 54.99584961 -16.90087891 54.99584961 -18.71337891 53.99584961 C -18.73803772 50.02653972 -18.75621914 46.05725927 -18.76831055 42.08789062 C -18.77334947 40.73664575 -18.78018068 39.38540635 -18.78881836 38.03417969 C -18.8009031 36.09564527 -18.80607719 34.15707161 -18.81103516 32.21850586 C -18.81889038 30.46679077 -18.81889038 30.46679077 -18.8269043 28.6796875 C -18.71337891 25.99584961 -18.71337891 25.99584961 -17.71337891 24.99584961 C -15.89525691 24.89620073 -14.07329106 24.86504466 -12.25244141 24.86303711 C -10.58568359 24.86110352 -10.58568359 24.86110352 -8.88525391 24.85913086 C -7.71478516 24.86299805 -6.54431641 24.86686523 -5.33837891 24.87084961 C -4.17564453 24.86698242 -3.01291016 24.86311523 -1.81494141 24.85913086 C -0.14431641 24.86106445 -0.14431641 24.86106445 1.56005859 24.86303711 C 3.09799072 24.864729 3.09799072 24.864729 4.66699219 24.86645508 C 7.28662109 24.99584961 7.28662109 24.99584961 10.28662109 25.99584961 C 12.9435402 25.11670273 12.9435402 25.11670273 15.28662109 23.99584961 C 14.83222656 23.55192871 14.37783203 23.10800781 13.90966797 22.65063477 C 11.86348592 20.64590102 9.82499819 18.63351745 7.78662109 16.62084961 C 6.71347656 15.5728418 6.71347656 15.5728418 5.61865234 14.50366211 C 4.94189453 13.83334961 4.26513672 13.16303711 3.56787109 12.47241211 C 2.93945312 11.85446777 2.31103516 11.23652344 1.66357422 10.59985352 C 0.28662109 8.99584961 0.28662109 8.99584961 0.28662109 6.99584961 C -6.45994984 12.70738974 -12.63881212 18.87348772 -18.79736328 25.20678711 C -19.51859375 25.93897461 -20.23982422 26.67116211 -20.98291016 27.42553711 C -21.62848877 28.0879541 -22.27406738 28.75037109 -22.93920898 29.43286133 C -24.71337891 30.99584961 -24.71337891 30.99584961 -27.71337891 31.99584961 C -28.37337891 31.66584961 -29.03337891 31.33584961 -29.71337891 30.99584961 C -29.3521113 25.889698 -26.55980275 23.22921322 -23.10400391 19.78491211 C -22.54018005 19.21251801 -21.9763562 18.6401239 -21.39544678 18.05038452 C -20.20347207 16.8469497 -19.00625575 15.64868691 -17.80419922 14.45532227 C -15.96587674 12.62333883 -14.15583479 10.76627207 -12.34619141 8.90600586 C -11.18375209 7.73902216 -10.01974092 6.57360165 -8.85400391 5.40991211 C -8.31422913 4.85171783 -7.77445435 4.29352356 -7.21832275 3.71841431 C -3.40275228 -0.00520486 -3.40275228 -0.00520486 0 0 Z M 9.28662109 28.99584961 C 8.95662109 29.32584961 8.62662109 29.65584961 8.28662109 29.99584961 C 4.97829743 30.16579774 1.67705002 30.29296613 -1.63525391 30.33764648 C -5.10493531 30.47477544 -7.60668522 30.94145948 -10.70947266 32.52319336 C -13.50237729 35.96940902 -13.26844943 39.02139068 -13.02587891 43.24584961 C -13.00332031 43.99092773 -12.98076172 44.73600586 -12.95751953 45.50366211 C -12.89881452 47.33525861 -12.80913647 49.16581614 -12.71337891 50.99584961 C -9.62868184 50.9438704 -6.54676331 50.84877826 -3.46337891 50.74584961 C -2.59068359 50.73166992 -1.71798828 50.71749023 -0.81884766 50.70288086 C 2.95074462 50.55900329 5.58063751 50.40412927 8.88037109 48.49584961 C 10.97770502 44.76725596 10.71758895 41.44291184 10.53662109 37.24584961 C 10.51857422 36.45307617 10.50052734 35.66030273 10.48193359 34.84350586 C 10.43495191 32.89376613 10.36321153 30.94465083 10.28662109 28.99584961 C 9.95662109 28.99584961 9.62662109 28.99584961 9.28662109 28.99584961 Z" stroke-linecap="round" />
</g>
</svg>