<svg id="Group_6" data-name="Group 6" xmlns="http://www.w3.org/2000/svg" xmlns:xlink="http://www.w3.org/1999/xlink" width="201.287" height="110" viewBox="0 0 201.287 110">
  <defs>
    <clipPath id="clip-path">
      <rect id="Rectangle_16" data-name="Rectangle 16" width="201.287" height="110" fill="#bcbcbc"/>
    </clipPath>
  </defs>
  <g id="Group_5" data-name="Group 5" clip-path="url(#clip-path)">
    <path id="Path_55" data-name="Path 55" d="M201.287,139.359c-3.4-.033-6.8-.038-10.2-.128a2.235,2.235,0,0,1-1.5-.675q-11.58-12.5-23.115-25.067-13.9-15.091-27.807-30.172c-.071-.077-.152-.139-.319-.288-1.346,1.453-2.714,2.925-4.078,4.4q-18.96,20.561-37.919,41.126c-2.961,3.213-5.923,6.425-8.859,9.678a2.734,2.734,0,0,1-2.2,1.048c-3.205-.054-6.411-.022-9.911-.022l19.7-21.386L63,83.066a3.212,3.212,0,0,0-.477.361Q49.418,97.652,36.316,111.885q-12.24,13.286-24.479,26.574a2.276,2.276,0,0,1-1.864.829c-3.241-.057-6.483-.025-9.974-.025.523-.592.9-1.031,1.282-1.45q9.892-10.74,19.772-21.5a2.6,2.6,0,0,0,.549-1.52c.041-4.812.021-9.625.028-14.437,0-.6.047-1.21.074-1.863h7.827v8.669l33.4-36.237,37.71,40.918,37.72-40.922,5.4,5.872q13.28,14.433,26.561,28.864,14.876,16.147,29.765,32.271c.385.417.8.789,1.2,1.183Z" transform="translate(0 -29.359)" fill="#bcbcbc"/>
    <path id="Path_56" data-name="Path 56" d="M148.049,37.783,182.874,0,217.7,37.792l-5.563,6.033L182.875,12.072,153.6,43.839l-5.551-6.056" transform="translate(-82.225)" fill="#bcbcbc"/>
    <path id="Path_57" data-name="Path 57" d="M333.329,152.638c-1.485,0-2.971.035-4.455-.029-.3-.013-.615-.353-.871-.629q-9.726-10.513-19.438-21.047-10.038-10.886-20.059-21.8c-.415-.453-.708-.461-1.147-.107q-7.9,6.351-15.816,12.666a12.606,12.606,0,0,1-2.211,1.518q3.725-4.055,7.452-8.11c3.464-3.762,6.942-7.5,10.386-11.3.6-.658.953-.641,1.563.025q13.588,14.8,27.22,29.535,7.8,8.46,15.581,16.947.93,1.011,1.862,2.017l-.067.31" transform="translate(-149.584 -42.77)" fill="#bcbcbc"/>
    <path id="Path_58" data-name="Path 58" d="M102.884,123.305l-9.8-7.842c-2.664-2.132-5.335-4.247-7.984-6.412-.538-.44-.876-.41-1.381.139Q64.1,130.534,44.443,151.8a2.536,2.536,0,0,1-1.588.757c-1.321.107-2.651.035-4.231.035l6.747-7.321q16.242-17.629,32.485-35.257,2.96-3.212,5.911-6.438c.361-.4.634-.653,1.111-.134q9.04,9.86,18.111,19.669l-.1.191" transform="translate(-21.451 -42.702)" fill="#bcbcbc"/>
    <rect id="Rectangle_9" data-name="Rectangle 9" width="6.518" height="8.509" transform="translate(139.975 101.294)" fill="#bcbcbc"/>
    <rect id="Rectangle_10" data-name="Rectangle 10" width="6.477" height="8.528" transform="translate(54.826 101.257)" fill="#bcbcbc"/>
    <rect id="Rectangle_11" data-name="Rectangle 11" width="6.525" height="8.535" transform="translate(64.571 101.286)" fill="#bcbcbc"/>
    <rect id="Rectangle_12" data-name="Rectangle 12" width="6.486" height="8.535" transform="translate(130.213 101.303)" fill="#bcbcbc"/>
    <rect id="Rectangle_13" data-name="Rectangle 13" width="6.506" height="8.533" transform="translate(54.8 88.387)" fill="#bcbcbc"/>
    <rect id="Rectangle_14" data-name="Rectangle 14" width="6.521" height="8.492" transform="translate(139.976 88.416)" fill="#bcbcbc"/>
    <path id="Path_59" data-name="Path 59" d="M145.243,159.315v-8.591c2.053,0,4.063-.021,6.072.039.162.005.448.557.452.86.037,2.535.021,5.07.021,7.692Z" transform="translate(-80.666 -62.392)" fill="#bcbcbc"/>
    <rect id="Rectangle_15" data-name="Rectangle 15" width="6.444" height="8.58" transform="translate(130.221 88.359)" fill="#bcbcbc"/>
  </g>
</svg>
