<svg id="Group_8" data-name="Group 8" xmlns="http://www.w3.org/2000/svg" xmlns:xlink="http://www.w3.org/1999/xlink" width="114.28" height="110" viewBox="0 0 114.28 110">
  <defs>
    <clipPath id="clip-path">
      <rect id="Rectangle_17" data-name="Rectangle 17" width="114.28" height="110" fill="#bcbcbc"/>
    </clipPath>
  </defs>
  <g id="Group_7" data-name="Group 7" clip-path="url(#clip-path)">
    <path id="Path_60" data-name="Path 60" d="M82.867,21.819c0-3.787-.006-7.21,0-10.633.008-3.761,2.168-5.911,5.946-5.929.9,0,1.809-.007,2.713,0,3.619.028,5.79,2.172,5.8,5.773.013,7.236.036,14.472-.026,21.708a3.245,3.245,0,0,0,1.292,2.781c4.679,3.975,9.3,8.016,13.945,12.034.288.249.579.5.858.755.72.67,1.219,1.56.623,2.394a3.277,3.277,0,0,1-2.083,1.354c-2.99.171-6,.175-8.992.095-1.3-.035-1.575.4-1.572,1.621q.056,27.135.026,54.271V110H14.312V52.907c-1.289,0-2.459-.006-3.627,0-2.523.017-5.046.027-7.568.069C1.879,53,.684,52.969.152,51.567c-.511-1.348.365-2.129,1.237-2.907q12.146-10.84,24.288-21.685L53.906,1.77c.319-.285.634-.577.959-.855C56.288-.3,57.189-.31,58.621.927q11.454,9.9,22.9,19.8c.347.3.712.579,1.345,1.091M57.526,98.78q11.5,0,22.992,0c3.159,0,4.655-1.475,4.656-4.593q.005-18.065,0-36.13c0-3.047-1.488-4.547-4.56-4.549q-22.992-.013-45.984,0c-3.089,0-4.644,1.578-4.645,4.667q-.007,17.922,0,35.845c0,3.252,1.537,4.76,4.834,4.761q11.353,0,22.706,0M56.91,15.164c.438.361.771.625,1.092.9q14.687,12.6,29.373,25.2c1.28,1.1,2.155,1.142,2.954.2.767-.9.61-1.744-.608-2.791Q74.285,25.418,58.831,12.175c-1.512-1.3-2.357-1.259-3.862.033q-8.778,7.535-17.558,15.067-6.34,5.441-12.671,10.891c-1.191,1.029-1.334,1.935-.488,2.79.941.952,1.824.674,2.747-.122q7.841-6.763,15.715-13.487c4.694-4.027,9.386-8.056,14.2-12.185" transform="translate(0 0)" fill="#bcbcbc"/>
    <path id="Path_63" data-name="Path 63" d="M122.406,181.411l-1.113-5.978-5.382,2.042-1.764-4.683-4.21,1.28-1.989-5.016c-1.344.4-2.589.71-3.781,1.158a1.833,1.833,0,0,1-2.392-.5c-.572-.733-1.179-.767-2.1-.411-4.4,1.709-8.491,1.048-11.866-2.294a10.227,10.227,0,0,1-2.52-11.44c1.616-4.4,4.985-6.746,9.635-7.111a10.809,10.809,0,0,1,11.322,9.812,2.164,2.164,0,0,0,1.318,1.932c6.65,3.8,13.276,7.634,19.941,11.4a2.252,2.252,0,0,1,1.343,2.241c-.027,1.664.047,3.332.136,4.995.038.72-.077,1.1-.91,1.262-1.857.351-3.687.844-5.671,1.313M92.608,162.1a3.975,3.975,0,0,0,3.984-3.975,4,4,0,1,0-8,.03,3.971,3.971,0,0,0,4.013,3.946" transform="translate(-50.356 -88.417)" fill="#bcbcbc"/>
  </g>
</svg>
