<svg xmlns="http://www.w3.org/2000/svg" xmlns:xlink="http://www.w3.org/1999/xlink" width="91.26" height="110" viewBox="0 0 91.26 110">
  <defs>
    <clipPath id="clip-path">
      <rect id="Rectangle_63" data-name="Rectangle 63" width="91.26" height="110" fill="#009cdc"/>
    </clipPath>
  </defs>
  <g id="Group_51" data-name="Group 51" clip-path="url(#clip-path)">
    <path id="Path_64" data-name="Path 64" d="M85.612,0c.409.11.823.206,1.227.334a6.254,6.254,0,0,1,4.355,5.939q.017,14.2.04,28.41.019,20.139.025,40.278c0,9.6-.08,19.19-.044,28.785.011,3.038-2.789,6.106-5.66,6.154-.715.012-1.429.088-2.143.088Q45.254,110,7.1,110a7.36,7.36,0,0,1-4.013-.943A5.989,5.989,0,0,1,0,103.652Q.013,55.022.007,6.391a7.248,7.248,0,0,1,.1-1.279A6.219,6.219,0,0,1,5.607.1,2.662,2.662,0,0,0,6.015,0Zm1.531,54.95h-.014q0-24.059,0-48.118a4.451,4.451,0,0,0-.068-1.012,2.271,2.271,0,0,0-2.492-1.743H21.52q-7.519,0-15.037,0A2.289,2.289,0,0,0,4.063,6.4c-.014.286-.016.573-.015.859q.008,7.84.017,15.681,0,36.2,0,72.392c0,2.7,0,5.406.009,8.109a2.28,2.28,0,0,0,2.478,2.474q39.069,0,78.138,0a2.6,2.6,0,0,0,.636-.065,2.259,2.259,0,0,0,1.8-2.246c.038-1.735.018-3.472.018-5.209q0-21.722,0-43.446" transform="translate(0)" fill="#009cdc"/>
    <path id="Path_65" data-name="Path 65" d="M146.233,195.908l2.678-5.641c1.509-3.177,3.034-6.348,4.512-9.539a4.2,4.2,0,0,0,.384-1.691c.03-5.4.02-10.809.021-16.213v-.713a15.467,15.467,0,0,1,6.608,1.2,17.483,17.483,0,0,1,8.819,7.664,17.873,17.873,0,0,1-3.2,21.925c-6,5.673-14.611,5.963-19.825,3.012" transform="translate(-88.174 -97.739)" fill="#009cdc"/>
    <path id="Path_66" data-name="Path 66" d="M124.1,225.07c-6.02-2.505-10.435-9.76-10-15.85h17.58L124.1,225.07" transform="translate(-68.778 -126.154)" fill="#009cdc"/>
    <path id="Path_67" data-name="Path 67" d="M143.978,118.08q-6.388,0-12.777,0a2.621,2.621,0,1,1-.311-5.231c.214-.015.429-.011.644-.011q12.482,0,24.964,0a4.512,4.512,0,0,1,.958.077,2.579,2.579,0,0,1,2.1,2.909,2.607,2.607,0,0,1-2.643,2.258c-3.561.01-7.122,0-10.684.005h-2.255Z" transform="translate(-77.382 -68.035)" fill="#009cdc"/>
    <path id="Path_68" data-name="Path 68" d="M40.772,157.2q6.468,0,12.936,0a2.6,2.6,0,0,1,2.7,2.862,2.667,2.667,0,0,1-2.831,2.373c-3.041.013-6.083.007-9.124.008q-7.837,0-15.673,0a7.54,7.54,0,0,1-1.6-.147,2.516,2.516,0,0,1-2.031-2.745,2.656,2.656,0,0,1,2.635-2.349c2.612-.014,5.224,0,7.837,0h5.153Z" transform="translate(-15.155 -94.787)" fill="#009cdc"/>
    <path id="Path_69" data-name="Path 69" d="M40.8,244.051q-6.524,0-13.049,0a2.45,2.45,0,0,1-2.384-1.587,2.637,2.637,0,0,1,.6-2.917,2.49,2.49,0,0,1,1.818-.642q8.511.01,17.023,0c3.007,0,6.014,0,9.021,0a2.4,2.4,0,0,1,2.44,1.652,2.607,2.607,0,0,1-.787,2.911,2.5,2.5,0,0,1-1.683.583q-6.5-.009-13,0" transform="translate(-15.172 -144.052)" fill="#009cdc"/>
    <path id="Path_70" data-name="Path 70" d="M40.856,198.062q6.521,0,13.041,0a2.429,2.429,0,0,1,2.417,1.831,2.487,2.487,0,0,1-1.1,2.927,3.586,3.586,0,0,1-1.585.366q-11.726.034-23.452.015c-.805,0-1.61.007-2.415,0a2.528,2.528,0,0,1-2.593-2.564,2.558,2.558,0,0,1,2.59-2.579q6.547-.009,13.095,0Z" transform="translate(-15.177 -119.424)" fill="#009cdc"/>
    <path id="Path_71" data-name="Path 71" d="M144.009,36.538q-6.521,0-13.042,0a2.385,2.385,0,0,1-2.4-1.559,2.607,2.607,0,0,1,.67-2.944,2.451,2.451,0,0,1,1.662-.641q13.069,0,26.138,0A2.571,2.571,0,1,1,157,36.536q-6.494.007-12.989,0" transform="translate(-77.41 -18.927)" fill="#009cdc"/>
    <path id="Path_72" data-name="Path 72" d="M143.894,72.209q6.5,0,12.994,0a2.7,2.7,0,0,1,2.637,2.222,2.658,2.658,0,0,1-2.042,2.877,2.739,2.739,0,0,1-.638.059q-12.914,0-25.827,0a2.627,2.627,0,0,1-2.6-1.783,2.571,2.571,0,0,1,2.534-3.361q6.471.011,12.941,0Z" transform="translate(-77.357 -43.539)" fill="#009cdc"/>
    <path id="Path_73" data-name="Path 73" d="M28.771,67.542h.773q14.8.006,29.594.017a4.219,4.219,0,0,1,1.058.127A1,1,0,0,1,61,68.7a1.068,1.068,0,0,1-.849.987,2.549,2.549,0,0,1-.635.076q-15.6.005-31.2,0a6.378,6.378,0,0,1-.8-.075.944.944,0,0,1-.884-.863,4.888,4.888,0,0,1-.068-.745q-.007-15.629,0-31.258a3.8,3.8,0,0,1,.068-.744,1.044,1.044,0,0,1,2.028-.1,2.525,2.525,0,0,1,.119.842q.008,15.039,0,30.077v.65" transform="translate(-16.009 -21.237)" fill="#009cdc"/>
    <path id="Path_74" data-name="Path 74" d="M101.484,53.492c.189,8.034.3,16.068.118,24.134h-4.15c-.008-.18-.025-.367-.025-.555,0-5.33-.017-10.66.015-15.99a3.9,3.9,0,0,1,.444-1.785c1.03-1.879,2.146-3.71,3.231-5.558a2.911,2.911,0,0,1,.219-.288l.147.042" transform="translate(-58.742 -32.229)" fill="#009cdc"/>
    <path id="Path_75" data-name="Path 75" d="M34.018,68.389c-.154-1.666-.443-3.291.469-4.862.941-1.619,1.718-3.334,2.567-5.008.081-.159.155-.322.239-.48.422-.8.674-.9,1.5-.557,1.5.628,2.989,1.277,4.484,1.913.407.173.819.332,1.266.512l1.977-4.146c.461-.968.92-1.936,1.384-2.9.418-.872.615-.956,1.558-.661,1.346.42,2.7.828,4.032,1.278a.752.752,0,0,0,1.049-.4c2.21-3.8,4.44-7.592,6.661-11.388.114-.2.2-.408.328-.671l-.839-.119,3.567-2.734c-.222,1.549-.423,2.957-.641,4.476l-.544-.655c-.191.295-.38.565-.547.849Q59.15,48.6,55.779,54.361q-.19.324-.385.645a.943.943,0,0,1-1.224.47c-1.392-.452-2.8-.861-4.185-1.327a.69.69,0,0,0-1,.441c-.945,2.043-1.92,4.071-2.885,6.1-.084.177-.165.357-.257.53-.371.7-.659.829-1.387.531-1.554-.636-3.1-1.3-4.642-1.951l-1.217-.513-4.575,9.1" transform="translate(-20.41 -23.014)" fill="#009cdc"/>
    <path id="Path_76" data-name="Path 76" d="M116.057,175.079c-.681-8.214,7.106-17.994,17.58-17.707v17.707Zm16.483-16.687c-.724.1-1.41.165-2.084.292a16.766,16.766,0,0,0-13.37,14.519c-.095.9-.088.914.8.914q6.926-.006,13.851-.017c.262,0,.525-.029.807-.046Z" transform="translate(-69.954 -94.888)" fill="#009cdc"/>
    <path id="Path_77" data-name="Path 77" d="M82.616,81.129c2.325.432,2.034.5,3.9-1.972V93.115h-3.9Z" transform="translate(-49.815 -47.73)" fill="#009cdc"/>
    <path id="Path_78" data-name="Path 78" d="M71.206,94.5H67.086c0-.489,0-.949,0-1.41,0-1.574-.024-3.148,0-4.721a6.7,6.7,0,0,1,.8-2.864c.587-1.183,1.151-2.377,1.722-3.568.134-.279.263-.621.652-.459s1,.069.991.815c-.023,3.9-.014,7.8-.019,11.7,0,.157-.019.314-.032.5" transform="translate(-40.445 -49.105)" fill="#009cdc"/>
    <path id="Path_79" data-name="Path 79" d="M51.794,97.006c.469.181.9.342,1.319.511.81.324,1.623.644,2.424.991.151.065.358.243.36.372.025,1.656.016,3.313.016,5h-4.12Z" transform="translate(-31.23 -58.492)" fill="#009cdc"/>
    <path id="Path_80" data-name="Path 80" d="M41.09,96.019v7.234H37.35l3.636-7.276.1.042" transform="translate(-22.521 -57.872)" fill="#009cdc"/>
  </g>
</svg>
