<svg id="Group_4" data-name="Group 4" xmlns="http://www.w3.org/2000/svg" xmlns:xlink="http://www.w3.org/1999/xlink" width="110.864" height="110" viewBox="0 0 110.864 110">
  <defs>
    <clipPath id="clip-path">
      <rect id="Rectangle_8" data-name="Rectangle 8" width="110.864" height="110" fill="#009cdc"/>
    </clipPath>
  </defs>
  <g id="Group_3" data-name="Group 3" clip-path="url(#clip-path)">
    <path id="Path_53" data-name="Path 53" d="M0,54.88A55.26,55.26,0,0,1,55.523,0c30.74.226,55.564,24.933,55.34,55.081C110.634,85.971,85.637,110.2,54.214,110,24.642,109.807-.171,84.578,0,54.88M89.534,91.21C103.2,79.142,109.917,57.94,102.517,37.837,94.936,17.239,74.905,4.276,52.352,5.3c-21.027.952-39.83,16.217-45.412,36.89C1.649,61.778,9.574,81.408,21.433,91.129a15.718,15.718,0,0,1-.151-2c.161-2.9-.187-5.973.655-8.674,2.838-9.11,9.882-13.837,18.663-16.492a6.776,6.776,0,0,1,4.888.314,24.136,24.136,0,0,0,18.97.3,9.664,9.664,0,0,1,7.42-.126c8.806,3.188,15.606,8.425,17.572,18.053.555,2.719.085,5.644.085,8.707" transform="translate(0 0)" fill="#009cdc"/>
    <path id="Path_54" data-name="Path 54" d="M80.346,41.346a19.063,19.063,0,1,1-19.3,19.107,19.176,19.176,0,0,1,19.3-19.107" transform="translate(-24.824 -16.989)" fill="#009cdc"/>
  </g>
</svg>
