<svg width="123" height="84" viewBox="0 0 123 84" fill="none" xmlns="http://www.w3.org/2000/svg">
<g clip-path="url(#clip0_2_5)">
<path d="M46.2169 48.249V34.7762C46.2169 28.8177 51.0768 23.9637 57.0426 23.9637H68.8306C70.0571 23.9637 71.0681 24.9478 71.0681 26.1754C71.0681 27.403 70.0571 28.4102 68.8306 28.4102H57.0426C53.5068 28.4102 50.6432 31.2703 50.6432 34.7788V48.2515C50.6432 49.4766 49.6578 50.4632 48.4288 50.4632C47.1997 50.4632 46.2143 49.4791 46.2143 48.2515L46.2169 48.249Z" fill="#1EA9E1"/>
<path d="M51.1153 48.4027C51.1153 47.1777 52.1006 46.191 53.3297 46.191H65.7925C69.3053 46.191 72.1689 43.3309 72.1689 39.7993V26.1959C72.1689 24.9709 73.1798 23.9611 74.4064 23.9611C75.6329 23.9611 76.6208 24.9709 76.6208 26.1959V39.7993C76.6208 45.7579 71.7609 50.6119 65.7951 50.6119H53.3323C52.1057 50.6119 51.1179 49.6278 51.1179 48.4002L51.1153 48.4027Z" fill="#1677BD"/>
<path d="M8.08442 57.8493C9.23653 57.8493 10.3014 58.0671 11.2816 58.5054C12.2618 58.9436 13.1008 59.5228 13.8039 60.2481C14.507 60.9734 15.0587 61.8012 15.4615 62.734C15.8644 63.6669 16.0671 64.628 16.0671 65.6172C16.0671 67.2062 15.6232 68.626 14.7353 69.8792C13.8475 71.1324 12.5646 72.014 10.8813 72.5189L15.1331 80.1125C15.3409 80.5277 15.4435 80.907 15.4435 81.2504C15.4435 81.804 15.2408 82.2576 14.838 82.6138C14.4351 82.9701 13.9784 83.1495 13.4729 83.1495C13.1034 83.1495 12.7698 83.0674 12.4696 82.9086C12.1694 82.7471 11.9051 82.4601 11.6742 82.0449L6.87073 73.4492H4.72817V81.1453C4.72817 81.7655 4.54855 82.255 4.19188 82.6113C3.83522 82.9675 3.34512 83.1469 2.72416 83.1469C2.17249 83.1469 1.70548 82.9675 1.32572 82.6113C0.945964 82.255 0.756084 81.7655 0.756084 81.1453V59.815C0.756084 59.2178 0.945964 58.7386 1.32572 58.3824C1.70548 58.0261 2.17249 57.8467 2.72416 57.8467H8.08185L8.08442 57.8493ZM4.7333 69.4819H8.08442C8.6361 69.4819 9.16212 69.3717 9.65734 69.1539C10.1526 68.9361 10.5785 68.649 10.9352 68.2902C11.2918 67.934 11.5741 67.5265 11.7819 67.0652C11.9898 66.6065 12.0924 66.1221 12.0924 65.6146C12.0924 65.1072 11.9898 64.6613 11.7819 64.2C11.5741 63.7412 11.2918 63.3363 10.9352 62.9929C10.5785 62.6469 10.1526 62.365 9.65734 62.1471C9.16212 61.9293 8.63866 61.8191 8.08442 61.8191H4.7333V69.4819Z" fill="#27245E"/>
<path d="M27.2982 63.2697C28.6812 63.2697 29.9873 63.5336 31.2215 64.0641C32.4532 64.5946 33.5309 65.302 34.4521 66.1862C35.3732 67.0729 36.1045 68.1083 36.6459 69.2923C37.1874 70.4789 37.4593 71.727 37.4593 73.0366C37.4593 73.7055 37.2874 74.2103 36.941 74.5563C36.5946 74.9023 36.1122 75.074 35.4887 75.074H21.4581C21.5736 75.7173 21.8148 76.317 22.1843 76.868C22.5538 77.4216 23.0079 77.8982 23.5494 78.3006C24.0908 78.703 24.6835 79.0208 25.3301 79.2488C25.9742 79.4795 26.6311 79.5948 27.3008 79.5948C28.1527 79.5948 28.9353 79.4462 29.6512 79.1463C30.3645 78.8465 30.9983 78.4211 31.5525 77.87C31.7835 77.6625 32.0375 77.4959 32.3121 77.3703C32.5892 77.2447 32.8535 77.1806 33.1075 77.1806C33.6361 77.1806 34.08 77.3754 34.4392 77.7675C34.7959 78.1596 34.9755 78.6184 34.9755 79.1489C34.9755 79.4257 34.9422 79.6896 34.8729 79.9434C34.8036 80.1971 34.665 80.4252 34.4572 80.6328C33.5591 81.622 32.4994 82.3575 31.278 82.8419C30.0566 83.3263 28.7326 83.5672 27.3033 83.5672C25.8741 83.5672 24.5783 83.3032 23.3467 82.7727C22.115 82.2448 21.0373 81.5246 20.1161 80.6148C19.195 79.705 18.4688 78.6363 17.9402 77.4036C17.4091 76.1735 17.1448 74.8562 17.1448 73.4517C17.1448 72.0473 17.4091 70.73 17.9402 69.4999C18.4688 68.2697 19.195 67.1933 20.1161 66.2733C21.0373 65.3532 22.115 64.6228 23.3467 64.0821C24.5783 63.5413 25.8972 63.2697 27.3033 63.2697H27.2982ZM27.2982 67.2369C26.6311 67.2369 25.9742 67.3522 25.3276 67.5829C24.6835 67.8135 24.101 68.1339 23.5827 68.5491C23.0644 68.9642 22.6205 69.4461 22.251 69.9996C21.8815 70.5532 21.63 71.1503 21.4915 71.7936H33.1024C32.9869 71.1503 32.7457 70.5506 32.3762 69.9996C32.0067 69.4486 31.5577 68.9642 31.0291 68.5491C30.4979 68.1339 29.9103 67.8135 29.2663 67.5829C28.6222 67.3522 27.9654 67.2369 27.2956 67.2369H27.2982Z" fill="#27245E"/>
<path d="M41.8137 63.7182C42.9428 63.7182 43.6099 64.2948 43.8178 65.4429C44.4156 64.7766 45.1546 64.2461 46.0296 63.854C46.9046 63.4619 47.8848 63.2671 48.9676 63.2671C50.2121 63.2671 51.3411 63.4926 52.3546 63.9411C53.3682 64.3896 54.2329 65.0047 54.9462 65.7889C55.6596 66.5706 56.2087 67.4983 56.5885 68.567C56.9682 69.6357 57.1581 70.7941 57.1581 72.0371V81.1838C57.1581 81.804 56.9785 82.2883 56.6218 82.6343C56.2651 82.9803 55.7853 83.152 55.1874 83.152C54.5896 83.152 54.138 82.9803 53.771 82.6343C53.4016 82.2883 53.2194 81.8065 53.2194 81.1838V72.0371C53.2194 71.3707 53.1167 70.7428 52.9089 70.156C52.701 69.5691 52.4085 69.0565 52.0288 68.6208C51.649 68.1826 51.182 67.8392 50.6303 67.5854C50.0787 67.3317 49.4551 67.2061 48.7649 67.2061C48.0747 67.2061 47.4409 67.3343 46.8635 67.5854C46.2862 67.8392 45.791 68.1775 45.3778 68.6029C44.9622 69.0283 44.6466 69.5358 44.4284 70.1226C44.2103 70.7095 44.1 71.3477 44.1 72.0371V81.1838C44.1 81.804 43.9204 82.2883 43.5637 82.6343C43.2071 82.9803 42.717 83.152 42.096 83.152C41.5443 83.152 41.0773 82.9803 40.6976 82.6343C40.3178 82.2883 40.1279 81.8065 40.1279 81.1838V65.4455C40.1279 64.9176 40.2947 64.4973 40.6283 64.1846C40.9619 63.8745 41.3596 63.7182 41.8214 63.7182H41.8137Z" fill="#27245E"/>
<path d="M64.6917 63.8899H65.9362C66.5341 63.8899 67.0139 64.0693 67.3706 64.4255C67.7272 64.7817 67.9068 65.2712 67.9068 65.8914C67.9068 66.4424 67.7272 66.9089 67.3706 67.2882C67.0139 67.6675 66.5341 67.8571 65.9362 67.8571H64.6917V77.0397C64.6917 77.501 64.7559 77.8675 64.8816 78.1443C65.0073 78.4211 65.1869 78.6389 65.4179 78.8004C65.6488 78.9618 65.9028 79.0771 66.1774 79.1463C66.4545 79.2155 66.7522 79.2617 67.0755 79.2847C67.6041 79.3309 68.0146 79.5333 68.302 79.8896C68.5894 80.2458 68.7331 80.7225 68.7331 81.3222C68.7331 81.8757 68.5381 82.3165 68.1455 82.6523C67.7529 82.9854 67.1781 83.152 66.4186 83.152C65.6129 83.152 64.8636 83.0367 64.1734 82.806C63.4831 82.5754 62.8776 82.214 62.3593 81.7194C61.8409 81.2248 61.4381 80.5918 61.1507 79.8204C60.8633 79.0489 60.7196 78.134 60.7196 77.0756V67.8597C60.1885 67.7905 59.7805 67.5726 59.4931 67.2036C59.2057 66.8371 59.062 66.3989 59.062 65.8914C59.062 65.3379 59.2057 64.8842 59.4931 64.528C59.7805 64.1718 60.1885 63.9693 60.7196 63.9232V58.0902C60.7196 57.47 60.9095 56.9805 61.2893 56.6243C61.669 56.268 62.136 56.0886 62.6877 56.0886C63.3087 56.0886 63.7988 56.268 64.1554 56.6243C64.5121 56.9805 64.6917 57.47 64.6917 58.0902V63.8899Z" fill="#27245E"/>
<path d="M79.0328 63.2697C80.4158 63.2697 81.7219 63.5336 82.9561 64.0641C84.1878 64.5946 85.2655 65.302 86.1866 66.1862C87.1078 67.0729 87.8391 68.1083 88.3805 69.2923C88.9219 70.4789 89.1939 71.727 89.1939 73.0366C89.1939 73.7055 89.022 74.2103 88.6756 74.5563C88.3292 74.9023 87.8468 75.074 87.2233 75.074H73.1927C73.3082 75.7173 73.5494 76.317 73.9188 76.868C74.2883 77.4216 74.7425 77.8982 75.2839 78.3006C75.8253 78.703 76.4181 79.0208 77.0647 79.2488C77.7087 79.4795 78.3656 79.5948 79.0353 79.5948C79.8872 79.5948 80.6698 79.4462 81.3857 79.1463C82.0991 78.8465 82.7329 78.4211 83.2871 77.87C83.518 77.6625 83.7721 77.4959 84.0466 77.3703C84.3238 77.2447 84.588 77.1806 84.8421 77.1806C85.3707 77.1806 85.8146 77.3754 86.1712 77.7675C86.5279 78.1596 86.7075 78.6184 86.7075 79.1489C86.7075 79.4257 86.6742 79.6896 86.6049 79.9434C86.5356 80.1971 86.397 80.4252 86.1892 80.6328C85.2911 81.622 84.2314 82.3575 83.01 82.8419C81.7886 83.3263 80.4646 83.5672 79.0353 83.5672C77.6061 83.5672 76.3103 83.3032 75.0787 82.7727C73.847 82.2448 72.7693 81.5246 71.8481 80.6148C70.927 79.705 70.2008 78.6363 69.6722 77.4036C69.1411 76.1735 68.8768 74.8562 68.8768 73.4517C68.8768 72.0473 69.1411 70.73 69.6722 69.4999C70.2008 68.2697 70.927 67.1933 71.8481 66.2733C72.7693 65.3532 73.847 64.6228 75.0787 64.0821C76.3103 63.5413 77.6292 63.2697 79.0353 63.2697H79.0328ZM79.0328 67.2369C78.3631 67.2369 77.7087 67.3522 77.0621 67.5829C76.4181 67.8135 75.8356 68.1339 75.3173 68.5491C74.799 68.9642 74.3551 69.4461 73.9881 69.9996C73.6186 70.5532 73.3672 71.1503 73.2286 71.7936H84.8395C84.724 71.1503 84.4828 70.5506 84.1133 69.9996C83.7438 69.4486 83.2948 68.9642 82.7662 68.5491C82.2351 68.1339 81.6475 67.8135 81.0034 67.5829C80.3594 67.3522 79.7025 67.2369 79.0328 67.2369Z" fill="#27245E"/>
<path d="M99.9067 63.8899C100.574 63.8899 101.105 64.0923 101.498 64.4947C101.89 64.8971 102.085 65.3994 102.085 65.9965C102.085 66.2502 102.044 66.4911 101.965 66.7218C101.883 66.9524 101.785 67.1703 101.672 67.3779L95.0725 79.0105H100.084C100.682 79.0105 101.167 79.1899 101.536 79.5461C101.906 79.9024 102.09 80.379 102.09 80.9787C102.09 81.5784 101.906 82.0884 101.536 82.4447C101.167 82.8009 100.684 82.9803 100.084 82.9803H91.8933C91.18 82.9803 90.6385 82.7958 90.269 82.4267C89.8995 82.0603 89.7174 81.5861 89.7174 81.0121C89.7174 80.5533 89.8662 80.0792 90.1664 79.5974L96.8019 67.8955H92.0318C91.4109 67.8955 90.9208 67.711 90.5641 67.342C90.2075 66.9729 90.0278 66.4911 90.0278 65.8914C90.0278 65.2917 90.2049 64.8381 90.5641 64.4588C90.9208 64.0795 91.4109 63.8899 92.0318 63.8899H99.9119H99.9067Z" fill="#27245E"/>
<path d="M112.831 63.2697C114.214 63.2697 115.52 63.5336 116.755 64.0641C117.986 64.5946 119.064 65.302 119.985 66.1862C120.906 67.0729 121.638 68.1083 122.179 69.2923C122.721 70.4789 122.993 71.727 122.993 73.0366C122.993 73.7055 122.821 74.2103 122.474 74.5563C122.128 74.9023 121.645 75.074 121.022 75.074H106.991C107.107 75.7173 107.348 76.317 107.717 76.868C108.087 77.4216 108.541 77.8982 109.083 78.3006C109.624 78.703 110.217 79.0208 110.863 79.2488C111.507 79.4795 112.164 79.5948 112.834 79.5948C113.686 79.5948 114.468 79.4462 115.184 79.1463C115.898 78.8465 116.531 78.4211 117.086 77.87C117.317 77.6625 117.571 77.4959 117.845 77.3703C118.122 77.2447 118.387 77.1806 118.641 77.1806C119.169 77.1806 119.613 77.3754 119.97 77.7675C120.326 78.1596 120.506 78.6184 120.506 79.1489C120.506 79.4257 120.473 79.6896 120.403 79.9434C120.334 80.1971 120.196 80.4252 119.988 80.6328C119.09 81.622 118.03 82.3575 116.809 82.8419C115.587 83.3263 114.263 83.5672 112.834 83.5672C111.405 83.5672 110.109 83.3032 108.877 82.7727C107.646 82.2448 106.568 81.5246 105.647 80.6148C104.726 79.705 103.999 78.6363 103.471 77.4036C102.94 76.1735 102.675 74.8562 102.675 73.4517C102.675 72.0473 102.94 70.73 103.471 69.4999C103.999 68.2697 104.726 67.1933 105.647 66.2733C106.568 65.3532 107.646 64.6228 108.877 64.0821C110.109 63.5413 111.428 63.2697 112.834 63.2697H112.831ZM112.831 67.2369C112.162 67.2369 111.507 67.3522 110.861 67.5829C110.217 67.8135 109.634 68.1339 109.116 68.5491C108.598 68.9642 108.154 69.4461 107.787 69.9996C107.417 70.5532 107.166 71.1503 107.027 71.7936H118.638C118.523 71.1503 118.281 70.5506 117.912 69.9996C117.542 69.4486 117.093 68.9642 116.565 68.5491C116.034 68.1339 115.446 67.8135 114.802 67.5829C114.158 67.3522 113.501 67.2369 112.831 67.2369Z" fill="#27245E"/>
<path d="M72.2715 25.8448C72.2715 24.7889 73.1311 23.9329 74.1883 23.9381L78.4683 23.9534L62.2027 6.72103C61.9333 6.42118 61.4689 6.40581 61.1841 6.69028L39.3838 28.2487C38.5832 29.0483 37.2823 29.0483 36.4817 28.2487C35.6811 27.4491 35.6811 26.1498 36.4817 25.3502L60.9916 1.08539C61.4766 0.601018 62.2669 0.624083 62.7211 1.13665L84.8061 24.8991C85.9044 26.1318 85.0242 28.0821 83.3718 28.0744L76.377 28.0488" fill="#1677BD"/>
<path d="M52.4829 23.9637H46.2169V30.2221C46.2169 30.2221 47.6077 24.9581 52.4829 23.9637Z" fill="#293A88"/>
</g>
<defs>
<clipPath id="clip0_2_5">
<rect width="122.231" height="82.8278" fill="white" transform="translate(0.758652 0.736847)"/>
</clipPath>
</defs>
</svg>
