<svg id="Group_53" data-name="Group 53" xmlns="http://www.w3.org/2000/svg" xmlns:xlink="http://www.w3.org/1999/xlink" width="20.33" height="24.504" viewBox="0 0 20.33 24.504">
  <defs>
    <clipPath id="clip-path">
      <rect id="Rectangle_64" data-name="Rectangle 64" width="20.33" height="24.504" fill="none"/>
    </clipPath>
  </defs>
  <g id="Group_53-2" data-name="Group 53" clip-path="url(#clip-path)">
    <path id="Path_81" data-name="Path 81" d="M19.072,0c.091.025.183.046.273.074a1.393,1.393,0,0,1,.97,1.323q0,3.164.009,6.329,0,4.486.006,8.973c0,2.138-.018,4.275-.01,6.412a1.425,1.425,0,0,1-1.261,1.371c-.159,0-.318.02-.477.02l-17,0a1.64,1.64,0,0,1-.894-.21A1.334,1.334,0,0,1,0,23.09Q0,12.257,0,1.424a1.615,1.615,0,0,1,.022-.285A1.385,1.385,0,0,1,1.249.022.593.593,0,0,0,1.34,0Zm.341,12.241h0q0-5.359,0-10.719a.992.992,0,0,0-.015-.226.506.506,0,0,0-.555-.388H1.444a.51.51,0,0,0-.539.517c0,.064,0,.128,0,.191q0,1.747,0,3.493,0,8.063,0,16.126c0,.6,0,1.2,0,1.806a.508.508,0,0,0,.552.551H18.865a.58.58,0,0,0,.142-.015.5.5,0,0,0,.4-.5c.008-.387,0-.773,0-1.16q0-4.839,0-9.678" transform="translate(0)" fill="#fcfcfc"/>
    <path id="Path_82" data-name="Path 82" d="M146.233,169.627l.6-1.257c.336-.708.676-1.414,1.005-2.125a.936.936,0,0,0,.085-.377c.007-1.2,0-2.408,0-3.612V162.1a3.446,3.446,0,0,1,1.472.266,3.894,3.894,0,0,1,1.965,1.707,3.981,3.981,0,0,1-.712,4.884,3.885,3.885,0,0,1-4.416.671" transform="translate(-133.299 -147.758)" fill="#fcfcfc"/>
    <path id="Path_83" data-name="Path 83" d="M116.3,212.751a3.847,3.847,0,0,1-2.228-3.531h3.916l-1.688,3.531" transform="translate(-103.977 -190.716)" fill="#fcfcfc"/>
    <path id="Path_84" data-name="Path 84" d="M131.819,114q-1.423,0-2.846,0a.584.584,0,1,1-.069-1.165c.048,0,.1,0,.143,0h5.561a1,1,0,0,1,.213.017.574.574,0,0,1,.469.648.581.581,0,0,1-.589.5c-.793,0-1.587,0-2.38,0h-.5Z" transform="translate(-116.984 -102.853)" fill="#fcfcfc"/>
    <path id="Path_85" data-name="Path 85" d="M28.617,157.2q1.441,0,2.882,0a.58.58,0,0,1,.6.638.594.594,0,0,1-.631.529c-.677,0-1.355,0-2.033,0q-1.746,0-3.492,0a1.679,1.679,0,0,1-.356-.033.561.561,0,0,1-.452-.612.592.592,0,0,1,.587-.523c.582,0,1.164,0,1.746,0h1.148Z" transform="translate(-22.91 -143.296)" fill="#fcfcfc"/>
    <path id="Path_86" data-name="Path 86" d="M28.645,240.05H25.738a.546.546,0,0,1-.531-.353.587.587,0,0,1,.133-.65.555.555,0,0,1,.405-.143q1.9,0,3.792,0c.67,0,1.34,0,2.01,0a.534.534,0,0,1,.544.368.581.581,0,0,1-.175.649.557.557,0,0,1-.375.13q-1.448,0-2.895,0" transform="translate(-22.936 -217.774)" fill="#fcfcfc"/>
    <path id="Path_87" data-name="Path 87" d="M28.665,198.059q1.453,0,2.905,0a.541.541,0,0,1,.538.408.554.554,0,0,1-.244.652.8.8,0,0,1-.353.082q-2.612.008-5.224,0c-.179,0-.359,0-.538,0a.563.563,0,0,1-.578-.571.57.57,0,0,1,.577-.575q1.459,0,2.917,0Z" transform="translate(-22.945 -180.541)" fill="#fcfcfc"/>
    <path id="Path_88" data-name="Path 88" d="M131.862,32.536q-1.453,0-2.905,0a.531.531,0,0,1-.534-.347.581.581,0,0,1,.149-.656.546.546,0,0,1,.37-.143q2.911,0,5.823,0a.573.573,0,1,1-.01,1.145h-2.893" transform="translate(-117.026 -28.613)" fill="#fcfcfc"/>
    <path id="Path_89" data-name="Path 89" d="M131.768,72.208q1.447,0,2.895,0a.6.6,0,0,1,.587.495.592.592,0,0,1-.455.641.61.61,0,0,1-.142.013H128.9a.585.585,0,0,1-.579-.4.573.573,0,0,1,.564-.749q1.441,0,2.883,0Z" transform="translate(-116.945 -65.821)" fill="#fcfcfc"/>
    <path id="Path_90" data-name="Path 90" d="M27.045,42.421h.172q3.3,0,6.592,0a.94.94,0,0,1,.236.028.222.222,0,0,1,.178.225.238.238,0,0,1-.189.22.568.568,0,0,1-.141.017H26.942a1.421,1.421,0,0,1-.178-.017.21.21,0,0,1-.2-.192,1.089,1.089,0,0,1-.015-.166q0-3.482,0-6.963a.846.846,0,0,1,.015-.166.233.233,0,0,1,.452-.023.563.563,0,0,1,.026.188q0,3.35,0,6.7v.145" transform="translate(-24.202 -32.105)" fill="#fcfcfc"/>
    <path id="Path_91" data-name="Path 91" d="M98.326,53.459c.042,1.79.068,3.579.026,5.376h-.925c0-.04-.005-.082-.006-.124,0-1.187,0-2.375,0-3.562a.869.869,0,0,1,.1-.4c.23-.419.478-.827.72-1.238a.649.649,0,0,1,.049-.064l.033.009" transform="translate(-88.805 -48.723)" fill="#fcfcfc"/>
    <path id="Path_92" data-name="Path 92" d="M33.887,44.9a1.7,1.7,0,0,1,.1-1.083c.21-.361.383-.743.572-1.116.018-.035.034-.072.053-.107.094-.178.15-.2.334-.124.334.14.666.284,1,.426.091.039.182.074.282.114l.44-.924c.1-.216.2-.431.308-.647.093-.194.137-.213.347-.147.3.094.6.184.9.285a.168.168,0,0,0,.234-.088c.492-.847.989-1.691,1.484-2.537.025-.044.045-.091.073-.149l-.187-.027.795-.609-.143,1-.121-.146c-.043.066-.085.126-.122.189l-1.5,2.567-.086.144a.21.21,0,0,1-.273.1c-.31-.1-.623-.192-.932-.3a.154.154,0,0,0-.223.1c-.21.455-.428.907-.643,1.36-.019.04-.037.08-.057.118-.083.156-.147.185-.309.118-.346-.142-.69-.289-1.034-.435l-.271-.114L33.887,44.9" transform="translate(-30.856 -34.792)" fill="#fcfcfc"/>
    <path id="Path_93" data-name="Path 93" d="M116.025,161.312a3.9,3.9,0,0,1,3.916-3.944v3.944Zm3.672-3.717c-.161.022-.314.037-.464.065a3.735,3.735,0,0,0-2.978,3.234c-.021.2-.02.2.177.2l3.085,0c.058,0,.117-.007.18-.01Z" transform="translate(-105.755 -143.448)" fill="#fcfcfc"/>
    <path id="Path_94" data-name="Path 94" d="M82.616,79.6c.518.1.453.11.868-.439v3.109h-.868Z" transform="translate(-75.309 -72.156)" fill="#fcfcfc"/>
    <path id="Path_95" data-name="Path 95" d="M68,84.349h-.918c0-.109,0-.211,0-.314,0-.351-.005-.7,0-1.052a1.493,1.493,0,0,1,.179-.638c.131-.264.256-.53.383-.795.03-.062.059-.138.145-.1s.222.015.221.181c-.005.869,0,1.738,0,2.607,0,.035,0,.07-.007.112" transform="translate(-61.144 -74.235)" fill="#fcfcfc"/>
    <path id="Path_96" data-name="Path 96" d="M51.794,97.006c.1.04.2.076.294.114.181.072.362.144.54.221.034.015.08.054.08.083.005.369,0,.738,0,1.115h-.918Z" transform="translate(-47.213 -88.426)" fill="#fcfcfc"/>
    <path id="Path_97" data-name="Path 97" d="M38.183,95.986V97.6H37.35l.81-1.621.023.009" transform="translate(-34.047 -87.488)" fill="#fcfcfc"/>
  </g>
</svg>
