<svg xmlns="http://www.w3.org/2000/svg" xmlns:xlink="http://www.w3.org/1999/xlink" width="25.077" height="24.138" viewBox="0 0 25.077 24.138">
  <defs>
    <clipPath id="clip-path">
      <rect id="Rectangle_17" data-name="Rectangle 17" width="25.077" height="24.138" fill="#fff"/>
    </clipPath>
  </defs>
  <g id="Group_7" data-name="Group 7" clip-path="url(#clip-path)">
    <path id="Path_60" data-name="Path 60" d="M18.184,4.788c0-.831,0-1.582,0-2.333a1.189,1.189,0,0,1,1.3-1.3c.2,0,.4,0,.6,0A1.173,1.173,0,0,1,21.356,2.42c0,1.588.008,3.176-.006,4.763a.712.712,0,0,0,.283.61c1.027.872,2.041,1.759,3.06,2.641.063.055.127.109.188.166.158.147.268.342.137.525a.719.719,0,0,1-.457.3c-.656.038-1.316.038-1.973.021-.285-.008-.346.087-.345.356q.012,5.954.006,11.909v.43H3.141V11.61c-.283,0-.539,0-.8,0-.554,0-1.107.006-1.661.015-.271,0-.534,0-.651-.31s.08-.467.271-.638l5.33-4.758L11.829.389c.07-.063.139-.127.21-.188a.522.522,0,0,1,.824,0q2.513,2.172,5.025,4.345c.076.066.156.127.3.239M12.623,21.676h5.045a.888.888,0,0,0,1.022-1.008q0-3.964,0-7.928a.88.88,0,0,0-1-1q-5.045,0-10.09,0A.906.906,0,0,0,6.58,12.765q0,3.933,0,7.866c0,.714.337,1.045,1.061,1.045h4.983M12.488,3.328c.1.079.169.137.24.2q3.223,2.765,6.445,5.53c.281.241.473.251.648.045s.134-.383-.134-.612Q16.3,5.578,12.91,2.672c-.332-.284-.517-.276-.848.007L8.209,5.985Q6.818,7.179,5.429,8.375c-.261.226-.293.425-.107.612.207.209.4.148.6-.027Q7.645,7.477,9.373,6l3.115-2.674" transform="translate(0 0)" fill="#fff"/>
    <path id="Path_63" data-name="Path 63" d="M92.842,155.663l-.244-1.312-1.181.448-.387-1.027-.924.281-.436-1.1c-.295.089-.568.156-.83.254a.4.4,0,0,1-.525-.111c-.125-.161-.259-.168-.46-.09a2.285,2.285,0,0,1-2.6-.5,2.244,2.244,0,0,1-.553-2.51,2.287,2.287,0,0,1,2.114-1.56,2.372,2.372,0,0,1,2.484,2.153.475.475,0,0,0,.289.424c1.459.833,2.913,1.675,4.376,2.5a.494.494,0,0,1,.295.492c-.006.365.01.731.03,1.1.008.158-.017.242-.2.277-.407.077-.809.185-1.244.288M86.3,151.426a.872.872,0,0,0,.874-.872.877.877,0,1,0-1.755.006.871.871,0,0,0,.881.866" transform="translate(-77.032 -135.257)" fill="#fff"/>
  </g>
</svg>
