<svg id="Group_179" data-name="Group 179" xmlns="http://www.w3.org/2000/svg" xmlns:xlink="http://www.w3.org/1999/xlink" width="135.042" height="91.619" viewBox="0 0 135.042 91.619">
  <defs>
    <clipPath id="clip-path">
      <rect id="Rectangle_151" data-name="Rectangle 151" width="135.042" height="91.619" fill="#fff"/>
    </clipPath>
  </defs>
  <g id="Group_177" data-name="Group 177" clip-path="url(#clip-path)">
    <path id="Path_190" data-name="Path 190" d="M177.156,117.489v-14.9a11.979,11.979,0,0,1,11.961-11.961h13.024a2.459,2.459,0,1,1,0,4.918H189.117a7.061,7.061,0,0,0-7.07,7.043v14.9a2.445,2.445,0,1,1-4.891,0" transform="translate(-126.935 -64.935)" fill="#fff"/>
    <path id="Path_191" data-name="Path 191" d="M196.249,117.659a2.439,2.439,0,0,1,2.445-2.445h13.768a7.061,7.061,0,0,0,7.043-7.07V93.1a2.459,2.459,0,1,1,4.917,0v15.046A11.979,11.979,0,0,1,212.462,120.1H198.694a2.439,2.439,0,0,1-2.445-2.445" transform="translate(-140.616 -64.935)" fill="#fff"/>
    <path id="Path_192" data-name="Path 192" d="M8.094,222.851a8.564,8.564,0,0,1,3.532.725,8.887,8.887,0,0,1,2.787,1.928,9.115,9.115,0,0,1,1.832,2.749,8.154,8.154,0,0,1-.8,7.9,7.746,7.746,0,0,1-4.257,2.921l4.7,8.4a2.852,2.852,0,0,1,.344,1.26,1.926,1.926,0,0,1-.668,1.508,2.214,2.214,0,0,1-1.508.592,2.094,2.094,0,0,1-1.985-1.222l-5.307-9.507H4.391v8.514a2.194,2.194,0,0,1-.592,1.623,2.193,2.193,0,0,1-1.623.592,2.172,2.172,0,0,1-1.546-.592A2.118,2.118,0,0,1,0,248.622v-23.6a2.07,2.07,0,0,1,.63-1.584,2.174,2.174,0,0,1,1.546-.592Zm-3.7,12.867h3.7a4.252,4.252,0,0,0,1.737-.363,4.612,4.612,0,0,0,1.413-.954,4.532,4.532,0,0,0,.935-1.356,3.863,3.863,0,0,0,.344-1.6,3.778,3.778,0,0,0-.344-1.565,4.3,4.3,0,0,0-.935-1.336,4.806,4.806,0,0,0-1.413-.936,4.252,4.252,0,0,0-1.737-.363h-3.7Z" transform="translate(0 -159.676)" fill="#fff"/>
    <path id="Path_193" data-name="Path 193" d="M75.064,244a10.863,10.863,0,0,1,4.334.878,11.86,11.86,0,0,1,3.57,2.348,11.155,11.155,0,0,1,2.424,3.436,9.871,9.871,0,0,1,.9,4.143,2.276,2.276,0,0,1-.573,1.68,2.169,2.169,0,0,1-1.6.573h-15.5a5.178,5.178,0,0,0,.8,1.985,6.35,6.35,0,0,0,1.508,1.585,7.473,7.473,0,0,0,1.966,1.05,6.416,6.416,0,0,0,2.176.382,6.644,6.644,0,0,0,2.6-.5,6.5,6.5,0,0,0,2.1-1.413,3.307,3.307,0,0,1,.84-.554,2.112,2.112,0,0,1,.878-.21,1.911,1.911,0,0,1,1.47.649,2.195,2.195,0,0,1,.592,1.527,3.313,3.313,0,0,1-.115.878,1.709,1.709,0,0,1-.458.764,9.324,9.324,0,0,1-3.513,2.443,11.81,11.81,0,0,1-4.391.8,10.952,10.952,0,0,1-4.372-.878,11.465,11.465,0,0,1-3.57-2.386,11.077,11.077,0,0,1-2.405-3.551,11.323,11.323,0,0,1,0-8.743,11.32,11.32,0,0,1,2.405-3.57,11.6,11.6,0,0,1,3.57-2.424,10.751,10.751,0,0,1,4.372-.9m0,4.391a6.431,6.431,0,0,0-2.176.382,6.633,6.633,0,0,0-1.928,1.069,7.044,7.044,0,0,0-1.47,1.6,5.71,5.71,0,0,0-.84,1.986H81.478a5.207,5.207,0,0,0-.8-1.986,6.909,6.909,0,0,0-3.436-2.672,6.436,6.436,0,0,0-2.176-.382" transform="translate(-45.742 -174.827)" fill="#fff"/>
    <path id="Path_194" data-name="Path 194" d="M155.272,244.492a2.055,2.055,0,0,1,2.215,1.909,7.159,7.159,0,0,1,2.443-1.756,7.866,7.866,0,0,1,3.245-.649,9.136,9.136,0,0,1,3.742.745,8.469,8.469,0,0,1,2.863,2.042,8.947,8.947,0,0,1,1.813,3.074,11.39,11.39,0,0,1,.63,3.837v10.118a2.129,2.129,0,0,1-.592,1.6,2.452,2.452,0,0,1-3.15,0,2.091,2.091,0,0,1-.611-1.6V253.694a6.209,6.209,0,0,0-.344-2.081,5.2,5.2,0,0,0-.974-1.7,4.506,4.506,0,0,0-1.546-1.145,4.9,4.9,0,0,0-2.062-.42,5.152,5.152,0,0,0-3.742,1.546,4.762,4.762,0,0,0-1.05,1.68,6.018,6.018,0,0,0-.363,2.119v10.118a2.13,2.13,0,0,1-.592,1.6,2.478,2.478,0,0,1-3.169,0,2.058,2.058,0,0,1-.63-1.6V246.4a1.811,1.811,0,0,1,.554-1.394,1.865,1.865,0,0,1,1.317-.515" transform="translate(-109.914 -174.827)" fill="#fff"/>
    <path id="Path_195" data-name="Path 195" d="M233.428,224.611H234.8a2.143,2.143,0,0,1,1.584.592,2.417,2.417,0,0,1,0,3.169,2.072,2.072,0,0,1-1.584.63h-1.375v10.156a2.963,2.963,0,0,0,.21,1.222,1.751,1.751,0,0,0,.592.725,2.5,2.5,0,0,0,.84.382,5.749,5.749,0,0,0,.992.153,1.865,1.865,0,0,1,1.355.668,2.451,2.451,0,0,1,.477,1.584,1.836,1.836,0,0,1-.649,1.47,2.875,2.875,0,0,1-1.909.554,7.816,7.816,0,0,1-2.482-.382,5.277,5.277,0,0,1-2-1.2,5.514,5.514,0,0,1-1.336-2.1,8.672,8.672,0,0,1-.477-3.035V229a1.959,1.959,0,0,1-1.356-.725,2.284,2.284,0,0,1-.477-1.451,2.326,2.326,0,0,1,.477-1.508,1.863,1.863,0,0,1,1.356-.668V218.2a2.119,2.119,0,0,1,.63-1.623,2.18,2.18,0,0,1,3.761,1.623Z" transform="translate(-162.796 -154.755)" fill="#fff"/>
    <path id="Path_196" data-name="Path 196" d="M276.678,244a10.86,10.86,0,0,1,4.333.878,11.858,11.858,0,0,1,3.57,2.348,11.166,11.166,0,0,1,2.425,3.436,9.876,9.876,0,0,1,.9,4.143,2.276,2.276,0,0,1-.573,1.68,2.169,2.169,0,0,1-1.6.573h-15.5a5.183,5.183,0,0,0,.8,1.985,6.354,6.354,0,0,0,1.508,1.585,7.472,7.472,0,0,0,1.966,1.05,6.415,6.415,0,0,0,2.176.382,6.645,6.645,0,0,0,2.6-.5,6.494,6.494,0,0,0,2.1-1.413,3.309,3.309,0,0,1,.84-.554,2.113,2.113,0,0,1,.878-.21,1.91,1.91,0,0,1,1.47.649,2.195,2.195,0,0,1,.592,1.527,3.314,3.314,0,0,1-.115.878,1.709,1.709,0,0,1-.458.764,9.326,9.326,0,0,1-3.513,2.443,11.81,11.81,0,0,1-4.391.8,10.953,10.953,0,0,1-4.372-.878,11.458,11.458,0,0,1-3.57-2.386,11.071,11.071,0,0,1-2.405-3.551,11.316,11.316,0,0,1,0-8.743,11.314,11.314,0,0,1,2.405-3.57,11.593,11.593,0,0,1,3.57-2.424,10.751,10.751,0,0,1,4.372-.9m0,4.391a6.431,6.431,0,0,0-2.176.382,6.638,6.638,0,0,0-1.928,1.069,7.043,7.043,0,0,0-1.47,1.6,5.7,5.7,0,0,0-.84,1.986h12.828a5.212,5.212,0,0,0-.8-1.986,6.909,6.909,0,0,0-3.436-2.672,6.435,6.435,0,0,0-2.176-.382" transform="translate(-190.201 -174.827)" fill="#fff"/>
    <path id="Path_197" data-name="Path 197" d="M357.93,246.42a2.338,2.338,0,0,1,1.756.668,2.292,2.292,0,0,1,.649,1.661,2.417,2.417,0,0,1-.134.8,4.739,4.739,0,0,1-.325.725l-7.292,12.866h5.536a2.209,2.209,0,0,1,1.6.592,2.106,2.106,0,0,1,.611,1.584,2.155,2.155,0,0,1-.611,1.623,2.206,2.206,0,0,1-1.6.592h-9.049a2.43,2.43,0,0,1-1.794-.611,2.116,2.116,0,0,1-.611-1.565,2.972,2.972,0,0,1,.5-1.566l7.331-12.943h-5.269a2.153,2.153,0,0,1-1.623-.611,2.442,2.442,0,0,1,0-3.188,2.117,2.117,0,0,1,1.623-.63Z" transform="translate(-248.393 -176.564)" fill="#fff"/>
    <path id="Path_198" data-name="Path 198" d="M408.4,244a10.859,10.859,0,0,1,4.333.878,11.858,11.858,0,0,1,3.57,2.348,11.165,11.165,0,0,1,2.425,3.436,9.875,9.875,0,0,1,.9,4.143,2.276,2.276,0,0,1-.573,1.68,2.169,2.169,0,0,1-1.6.573h-15.5a5.183,5.183,0,0,0,.8,1.985,6.354,6.354,0,0,0,1.508,1.585,7.473,7.473,0,0,0,1.966,1.05,6.416,6.416,0,0,0,2.176.382,6.645,6.645,0,0,0,2.6-.5,6.494,6.494,0,0,0,2.1-1.413,3.309,3.309,0,0,1,.84-.554,2.112,2.112,0,0,1,.878-.21,1.91,1.91,0,0,1,1.47.649,2.195,2.195,0,0,1,.592,1.527,3.315,3.315,0,0,1-.115.878,1.709,1.709,0,0,1-.458.764,9.326,9.326,0,0,1-3.513,2.443,11.81,11.81,0,0,1-4.391.8,10.952,10.952,0,0,1-4.372-.878,11.457,11.457,0,0,1-3.57-2.386,11.072,11.072,0,0,1-2.405-3.551,11.316,11.316,0,0,1,0-8.743,11.315,11.315,0,0,1,2.405-3.57,11.592,11.592,0,0,1,3.57-2.424,10.751,10.751,0,0,1,4.372-.9m0,4.391a6.431,6.431,0,0,0-2.176.382,6.638,6.638,0,0,0-1.928,1.069,7.043,7.043,0,0,0-1.47,1.6,5.7,5.7,0,0,0-.84,1.986H414.81a5.212,5.212,0,0,0-.8-1.986,6.909,6.909,0,0,0-3.436-2.672,6.435,6.435,0,0,0-2.176-.382" transform="translate(-284.58 -174.827)" fill="#fff"/>
    <path id="Path_199" data-name="Path 199" d="M177.079,27.772a2.11,2.11,0,0,1,2.118-2.11l4.727.018L165.956,6.62a.775.775,0,0,0-1.127-.033L140.744,30.432a2.268,2.268,0,1,1-3.207-3.207L164.616.385a1.314,1.314,0,0,1,1.911.056l24.4,26.283a2.11,2.11,0,0,1-1.584,3.513l-7.727-.029" transform="translate(-98.072 0)" fill="#fff"/>
    <path id="Path_200" data-name="Path 200" d="M184.078,90.627h-6.923V97.55s1.537-5.821,6.923-6.923" transform="translate(-126.934 -64.936)" fill="#fff"/>
  </g>
</svg>
